HIERARCHY
ROOT Hips
{
	OFFSET 0.000000 88.474243 0.000000
	CHANNELS 6 Xposition Yposition Zposition Zrotation Yrotation Xrotation 
	JOINT Hips_Spine
	{
		OFFSET 0.000000 0.000000 0.000000
		CHANNELS 3 Zrotation Yrotation Xrotation
		JOINT Spine
		{
			OFFSET 0.005100 8.711998 -0.691000
			CHANNELS 3 Zrotation Yrotation Xrotation
			JOINT Spine1
			{
				OFFSET -0.009200 8.660301 -1.275000
				CHANNELS 3 Zrotation Yrotation Xrotation
				JOINT Spine2
				{
					OFFSET 0.006300 9.852501 -1.857000
					CHANNELS 3 Zrotation Yrotation Xrotation
					JOINT Spine2_Neck
					{
						OFFSET 0.000000 0.000000 0.000000
						CHANNELS 3 Zrotation Yrotation Xrotation
						JOINT Neck
						{
							OFFSET 0.016300 11.420799 -0.263300
							CHANNELS 3 Zrotation Yrotation Xrotation
							End Site #name: Head
							{
								OFFSET -0.019200 9.262405 2.362500
							}
						}
					}
					JOINT Spine2_LeftShoulder
					{
						OFFSET 0.000000 0.000000 0.000000
						CHANNELS 3 Zrotation Yrotation Xrotation
						JOINT LeftShoulder
						{
							OFFSET 5.616900 6.732201 -0.345700
							CHANNELS 3 Zrotation Yrotation Xrotation
							JOINT LeftArm
							{
								OFFSET 10.664888 -0.183372 -2.440700
								CHANNELS 3 Zrotation Yrotation Xrotation
								JOINT LeftForeArm
								{
									OFFSET 27.459126 0.000000 0.000000
									CHANNELS 3 Zrotation Yrotation Xrotation
									End Site #name: LeftHand
									{
										OFFSET 21.306858 0.000000 0.000000
									}
								}
							}
						}
					}
					JOINT Spine2_RightShoulder
					{
						OFFSET 0.000000 0.000000 0.000000
						CHANNELS 3 Zrotation Yrotation Xrotation
						JOINT RightShoulder
						{
							OFFSET -5.580300 6.737503 -0.344400
							CHANNELS 3 Zrotation Yrotation Xrotation
							JOINT RightArm
							{
								OFFSET -10.679335 -0.188484 -2.383900
								CHANNELS 3 Zrotation Yrotation Xrotation
								JOINT RightForeArm
								{
									OFFSET -27.503529 0.000000 0.000000
									CHANNELS 3 Zrotation Yrotation Xrotation
									End Site #name: RightHand
									{
										OFFSET -21.306808 0.000000 0.000000
									}
								}
							}
						}
					}
				}
			}
		}
	}
	JOINT Hips_LeftUpLeg
	{
		OFFSET 0.000000 0.000000 0.000000
		CHANNELS 3 Zrotation Yrotation Xrotation
		JOINT LeftUpLeg
		{
			OFFSET 6.857700 -6.739601 0.312100
			CHANNELS 3 Zrotation Yrotation Xrotation
			JOINT LeftLeg
			{
				OFFSET -0.367590 -34.731552 -4.572400
				CHANNELS 3 Zrotation Yrotation Xrotation
				End Site #name: LeftFoot
				{
					OFFSET 0.367590 -34.656704 -6.067400
				}
			}
		}
	}
	JOINT Hips_RightUpLeg
	{
		OFFSET 0.000000 0.000000 0.000000
		CHANNELS 3 Zrotation Yrotation Xrotation
		JOINT RightUpLeg
		{
			OFFSET -6.876100 -6.733299 0.301000
			CHANNELS 3 Zrotation Yrotation Xrotation
			JOINT RightLeg
			{
				OFFSET 0.347353 -34.795158 -4.515900
				CHANNELS 3 Zrotation Yrotation Xrotation
				End Site #name: RightFoot
				{
					OFFSET -0.347353 -34.589367 -6.070300
				}
			}
		}
	}
}
MOTION
Frames: 17
Frame Time: 0.041667
-0.060760 0.066331 0.022753 -3.985380 0.378792 -2.248674 -0.000000 0.000000 0.000000 -0.704802 0.847416 5.656748 -1.625050 1.294072 9.794815 0.000000 0.000000 0.000000 -1.876086 1.239328 9.250021 -1.236956 -3.624204 4.234497 -1.934073 1.181048 10.021948 -0.907376 -0.925499 0.292816 -68.873297 -24.347776 20.544310 170.332272 -85.584333 -170.617510 -1.816912 1.675080 10.720602 -4.843909 -0.398902 1.350499 76.684834 -5.006570 5.540242 175.410842 84.071640 177.201894 0.000000 -0.000000 0.000000 7.475878 1.459542 -19.524096 -1.153328 0.584854 33.674131 -0.000000 0.000000 -0.000000 -4.022908 -2.639374 -15.921194 -0.267808 -2.087050 27.147706 
0.046089 0.084239 0.157819 -5.072261 -4.081812 -1.900181 -0.000000 0.000000 0.000000 -0.726834 0.445882 5.283351 -2.021219 1.387496 10.191678 0.000000 0.000000 0.000000 -1.793168 1.310748 10.111604 -2.063665 -3.990881 5.512263 -1.967742 1.491140 10.548281 0.764860 0.998934 -0.169057 -68.826483 -22.978547 31.282193 179.101572 -82.904450 -179.176763 -1.897371 1.176226 10.187798 -5.568541 -2.090965 0.626871 82.218593 -7.114531 6.579555 -167.852328 87.212707 -168.082745 0.000000 -0.000000 0.000000 7.559521 0.244392 -22.905992 -0.652398 0.959254 32.932734 0.000000 0.000000 -0.000000 -3.013827 -3.646650 -16.714696 1.026030 -0.499608 26.621813 
0.195342 0.076963 0.180959 -4.635740 -6.419467 -2.578465 -0.000000 -0.000000 -0.000000 -0.687626 0.444330 5.058146 -2.084395 1.323098 10.029241 0.000000 0.000000 0.000000 -2.075924 1.501915 10.784608 -1.867602 -3.571858 4.813009 -1.775044 1.585943 10.231901 1.008643 0.598787 -0.142586 -70.590711 -17.548267 32.498684 -178.163829 -82.151847 177.996928 -1.979371 1.356363 10.152609 -3.906120 -1.801203 0.762671 81.158332 -7.382334 9.002490 -166.316690 87.274478 -166.594328 0.000000 -0.000000 0.000000 7.847450 0.948431 -23.145545 -0.769552 0.642980 34.194162 0.000000 0.000000 -0.000000 -2.723795 -3.649339 -16.899799 0.664907 -0.932504 25.774863 
0.292006 0.039928 0.184253 -4.285307 -7.343830 -2.892311 -0.000000 -0.000000 -0.000000 -0.580401 0.521631 4.828623 -1.985728 1.471607 9.994327 0.000000 0.000000 0.000000 -1.909887 1.580335 10.252666 -1.829120 -3.847762 5.260479 -1.843997 1.619499 10.131219 1.793277 0.334745 0.058266 -71.210678 -16.925789 31.957463 -177.439336 -83.278246 177.324293 -2.013589 1.521009 10.024767 -4.035254 -1.022643 1.188261 79.822935 -6.895950 9.237018 -169.363070 85.541653 -169.851790 0.000000 -0.000000 0.000000 7.765108 1.225765 -23.465883 -1.078711 0.573061 34.992563 0.000000 0.000000 0.000000 -2.291292 -3.432484 -17.372964 0.554438 -0.756708 26.331746 
0.364005 0.031900 0.251007 -4.434464 -6.975026 -2.855931 -0.000000 -0.000000 0.000000 -0.522797 0.643077 4.850766 -1.893429 1.507484 9.858806 0.000000 0.000000 0.000000 -1.832911 1.575499 9.823039 -1.641218 -3.969786 5.301952 -1.901583 1.608671 9.914635 2.004372 0.229164 0.222470 -71.364587 -17.957657 31.387960 -175.657417 -84.105217 175.839004 -2.010777 1.569774 9.954244 -4.075034 -1.497785 1.288701 79.181304 -7.856198 8.057937 -167.845054 85.205138 -168.406925 0.000000 -0.000000 0.000000 7.304986 1.248855 -23.161079 -1.136857 0.678833 34.835717 -0.000000 0.000000 0.000000 -2.362537 -3.425134 -17.548365 0.574095 -0.629889 26.549433 
0.451784 0.044380 0.349726 -4.660310 -6.060681 -2.869315 -0.000000 -0.000000 0.000000 -0.498947 0.748350 4.869390 -1.799412 1.466793 9.682724 0.000000 0.000000 0.000000 -1.785831 1.499051 9.642725 -1.431282 -3.832274 5.162401 -1.891008 1.542940 9.691015 1.901799 0.322883 0.254492 -71.762170 -18.513662 30.613746 -174.871260 -84.557093 175.092410 -1.976949 1.551670 9.889619 -4.357480 -1.919196 1.232086 79.325809 -8.556988 7.342946 -167.830615 85.219867 -168.336566 0.000000 0.000000 0.000000 6.992559 1.305720 -22.737044 -1.133166 0.765388 34.410918 -0.000000 -0.000000 0.000000 -2.749578 -3.512087 -17.248845 0.537908 -0.732009 26.286483 
0.555090 0.063508 0.444872 -4.840574 -5.546325 -2.788619 -0.000000 -0.000000 0.000000 -0.519502 0.765988 4.911197 -1.797687 1.479839 9.694359 0.000000 0.000000 0.000000 -1.796574 1.437539 9.618732 -1.203024 -3.662359 5.085985 -1.859513 1.488429 9.553266 1.741215 0.523756 0.208654 -71.697442 -19.126839 29.578953 -176.275741 -83.651002 176.442799 -1.908929 1.509535 9.808304 -4.489623 -1.788996 1.163833 79.678189 -8.798195 7.163046 -169.121893 85.266057 -169.477179 0.000000 0.000000 0.000000 6.812867 1.331061 -22.214021 -1.123725 0.747794 34.086565 -0.000000 -0.000000 0.000000 -3.324711 -3.505880 -16.784884 0.494308 -0.864311 25.813419 
0.666691 0.083477 0.525770 -4.934032 -5.390164 -2.615907 -0.000000 -0.000000 0.000000 -0.547497 0.760815 4.984592 -1.806905 1.494255 9.738039 0.000000 0.000000 0.000000 -1.813125 1.426730 9.675043 -0.923097 -3.551939 5.076560 -1.819510 1.472376 9.537281 1.677577 0.548503 0.193064 -71.629757 -19.726019 28.799162 -177.418410 -82.938490 177.536159 -1.827438 1.489760 9.725567 -4.520060 -1.580534 1.127130 79.701711 -8.647632 7.201574 -170.311854 85.307772 -170.552682 0.000000 0.000000 0.000000 6.644623 1.427181 -22.092341 -1.097996 0.690201 34.149010 -0.000000 -0.000000 0.000000 -3.806447 -3.432108 -16.512208 0.478723 -0.911216 25.540881 
0.783075 0.101672 0.587858 -4.947059 -5.457394 -2.393856 -0.000000 0.000000 0.000000 -0.540310 0.738782 5.034680 -1.781305 1.504129 9.789528 0.000000 0.000000 0.000000 -1.789133 1.439612 9.724216 -0.597869 -3.310510 4.991463 -1.774551 1.480799 9.599371 1.738485 0.538122 0.216945 -71.842778 -19.675249 28.664573 -177.905024 -83.126637 177.972143 -1.726201 1.477312 9.697253 -4.334955 -1.343330 1.135863 79.393859 -8.277708 7.368834 -171.299486 85.531751 -171.444664 0.000000 0.000000 0.000000 6.572492 1.426922 -22.082093 -1.094259 0.619284 34.230645 -0.000000 -0.000000 -0.000000 -3.995401 -3.248947 -16.486883 0.469995 -0.905845 25.484874 
0.903430 0.115028 0.632202 -4.908272 -5.647383 -2.230641 -0.000000 0.000000 0.000000 -0.517517 0.708417 5.054251 -1.731627 1.518634 9.789506 0.000000 0.000000 0.000000 -1.740675 1.468625 9.719788 -0.196257 -2.750560 4.754828 -1.717833 1.489881 9.635044 1.933372 0.521964 0.251857 -72.196952 -19.318688 28.941381 -178.067926 -83.605624 178.086788 -1.640480 1.475010 9.672920 -4.247315 -1.286859 1.170464 79.061820 -8.003704 7.545966 -171.959164 85.682946 -172.060031 0.000000 0.000000 0.000000 6.540249 1.404067 -21.992989 -1.082452 0.564935 34.164798 -0.000000 -0.000000 -0.000000 -3.972205 -3.048787 -16.583895 0.470951 -0.888178 25.426130 
1.026456 0.124007 0.667195 -4.797332 -5.900036 -2.160121 -0.000000 0.000000 0.000000 -0.490545 0.666592 5.018978 -1.660272 1.520241 9.724574 0.000000 0.000000 0.000000 -1.676097 1.484669 9.655030 0.192412 -2.112654 4.356930 -1.654252 1.486321 9.630491 2.236096 0.522560 0.295805 -72.670088 -18.854264 29.423457 -177.911352 -84.118669 177.883537 -1.571445 1.470320 9.625782 -4.226614 -1.334019 1.204648 78.931265 -7.932874 7.573220 -172.477267 85.701315 -172.576437 0.000000 0.000000 0.000000 6.508935 1.410008 -21.956811 -1.077810 0.513797 34.085953 -0.000000 -0.000000 -0.000000 -3.849880 -2.858415 -16.672076 0.452280 -0.861375 25.236069 
1.152563 0.130975 0.699089 -4.719735 -6.165015 -2.114633 -0.000000 0.000000 0.000000 -0.462447 0.624675 4.947328 -1.589875 1.520297 9.651570 0.000000 0.000000 0.000000 -1.600970 1.500235 9.586821 0.531599 -1.468718 3.900266 -1.597223 1.478895 9.608743 2.521364 0.613224 0.339439 -73.248370 -18.302329 29.888696 -177.887609 -84.469875 177.836127 -1.518017 1.464718 9.566878 -4.269510 -1.411508 1.218280 78.974429 -8.058365 7.543276 -173.083362 85.632693 -173.203186 0.000000 0.000000 0.000000 6.449527 1.421340 -21.917186 -1.106603 0.460403 33.974911 -0.000000 -0.000000 -0.000000 -3.716965 -2.685794 -16.710696 0.414584 -0.856771 24.961536 
1.282977 0.139383 0.734845 -4.676556 -6.416199 -2.091706 -0.000000 0.000000 0.000000 -0.439568 0.591143 4.877592 -1.520229 1.514507 9.603361 0.000000 0.000000 0.000000 -1.540065 1.508460 9.548168 0.883954 -0.899587 3.619908 -1.546333 1.469793 9.582977 2.770398 0.757406 0.378386 -73.781648 -17.965167 30.249198 -177.901839 -84.536752 177.859985 -1.479294 1.456583 9.509259 -4.363244 -1.488567 1.223139 79.138184 -8.221855 7.509152 -173.766226 85.432499 -173.911244 0.000000 0.000000 0.000000 6.375683 1.457619 -21.955098 -1.128753 0.452513 33.898252 -0.000000 -0.000000 -0.000000 -3.634987 -2.533148 -16.653028 0.396267 -0.859859 24.650857 
1.418747 0.151324 0.776307 -4.687253 -6.618184 -2.055402 -0.000000 0.000000 0.000000 -0.413261 0.569175 4.775522 -1.455177 1.505532 9.579873 0.000000 0.000000 0.000000 -1.483742 1.505473 9.534377 1.270829 -0.391015 3.339576 -1.500570 1.458194 9.563992 2.998141 0.869001 0.421336 -74.183778 -17.719589 30.473926 -178.076476 -84.361438 178.051984 -1.443364 1.446359 9.466272 -4.427199 -1.550274 1.215052 79.252643 -8.373003 7.499116 -174.308076 85.252743 -174.474553 0.000000 0.000000 0.000000 6.299074 1.524388 -22.026709 -1.143165 0.481538 33.838580 -0.000000 -0.000000 -0.000000 -3.618805 -2.418845 -16.532284 0.397222 -0.862169 24.303326 
1.561444 0.166906 0.822439 -4.743320 -6.776857 -2.013599 -0.000000 0.000000 0.000000 -0.381041 0.562231 4.699189 -1.398968 1.496315 9.564127 0.000000 0.000000 0.000000 -1.430804 1.496034 9.533067 1.704558 0.036667 3.056068 -1.458555 1.448122 9.552993 3.204491 0.948630 0.461726 -74.428222 -17.573188 30.558044 -178.362710 -84.081699 178.347510 -1.406208 1.436342 9.435678 -4.473896 -1.612881 1.210993 79.238814 -8.531084 7.508851 -174.734159 85.049549 -174.924174 0.000000 0.000000 0.000000 6.195265 1.596009 -22.087826 -1.127271 0.526983 33.777585 -0.000000 -0.000000 -0.000000 -3.691876 -2.345539 -16.339210 0.418159 -0.853900 23.903174 
1.712322 0.186118 0.871156 -4.786765 -6.879273 -1.995448 -0.000000 0.000000 0.000000 -0.346335 0.560482 4.653746 -1.351663 1.489446 9.546289 0.000000 0.000000 0.000000 -1.377474 1.485106 9.531231 2.090680 0.366616 2.864418 -1.414565 1.438228 9.536131 3.383521 0.998867 0.494012 -74.579520 -17.443527 30.532724 -178.568672 -83.836761 178.556315 -1.366011 1.424548 9.412643 -4.515960 -1.680933 1.218336 79.131391 -8.684587 7.466898 -175.015530 84.892662 -175.230549 0.000000 0.000000 0.000000 6.059830 1.680478 -22.163856 -1.096905 0.584101 33.734164 -0.000000 -0.000000 -0.000000 -3.812881 -2.295584 -16.138001 0.435499 -0.843025 23.485650 
1.873583 0.208522 0.922754 -4.815956 -6.993495 -1.980065 -0.000000 0.000000 -0.000000 -0.309184 0.557082 4.619270 -1.301254 1.480532 9.527478 0.000000 0.000000 0.000000 -1.320994 1.475564 9.528425 2.436071 0.605515 2.757966 -1.366383 1.426646 9.508885 3.524299 1.007879 0.521840 -74.645682 -17.252770 30.441041 -178.730473 -83.784815 178.700613 -1.322992 1.413019 9.390993 -4.558050 -1.739637 1.234764 78.948698 -8.814483 7.382331 -175.183609 84.747315 -175.426936 0.000000 0.000000 0.000000 5.889655 1.729974 -22.230034 -1.087171 0.618653 33.665652 -0.000000 -0.000000 -0.000000 -3.981218 -2.275498 -15.955318 0.446601 -0.831787 23.076299 
